# xmcd
#
# Track frame offsets: 
#        150
#        13028
#        28446
#        42563
#        60481
#        71968
#        87670
#        101428
#        117604
#        133177
#        146847
#        163372
#
# Disc length: 2353 seconds
#
# Revision: 0
# Processed by: cddbd v1.5.2PL0 Copyright (c) Steve Scherf et al.
# Submitted via: ExactAudioCopy v0.95b3
#
DISCID=c2092f0c
DTITLE=Daryle Singletary - Straight From The Heart
DYEAR=2007
DGENRE=Country
TTITLE0=Bottle Let Me Down
TTITLE1=Black Sheep (with John Anderson)
TTITLE2=Some Broken Hearts Never Mend
TTITLE3=Promises
TTITLE4=I've Got A Tiger By The Tail (with Ricky Skaggs)
TTITLE5=Jesus And Bartenders
TTITLE6=These Days I Barely Get By
TTITLE7=Miami, My Amy
TTITLE8=I Still Sing This Way
TTITLE9=Lovin' On Back Streets
TTITLE10=Fifteen Years Ago
TTITLE11=We're Gonna Hold On (with Rhonda Vincent)
EXTD=
EXTT0=
EXTT1=
EXTT2=
EXTT3=
EXTT4=
EXTT5=
EXTT6=
EXTT7=
EXTT8=
EXTT9=
EXTT10=
EXTT11=
PLAYORDER=
